<svg xmlns="http://www.w3.org/2000/svg"><linearGradient id="a" gradientUnits="userSpaceOnUse" x1="-422.204" y1="144.021" x2="2261.033" y2="144.021"><stop offset="0" stop-color="#00aeef"/><stop offset="1" stop-color="#2e3192"/></linearGradient><path opacity=".5" fill="url(#a)" d="M-422.204 206.913s173.292 111.168 438.823-.001c154.115-64.523 276.128-60.886 421.022 12.909 109.477 55.758 243.895 91.25 368.21 91.796 104.42.459 205.692-20.687 295.24-72.942 310.249-181.045 486.337 0 486.337 0s310.249 250.923 673.604-19.057V-56.715H-421.195l-1.009 263.628z"><animateTransform attributeName="transform" attributeType="XML" type="translate" dur="25" values="150,0;-150,0;150,0;" repeatCount="indefinite"/></path><linearGradient id="b" gradientUnits="userSpaceOnUse" x1="-420.541" y1="112.531" x2="2257.896" y2="112.531"><stop offset="0" stop-color="#262262"/><stop offset="1" stop-color="#00aeef"/></linearGradient><path opacity=".5" fill="url(#b)" d="M-420.541 164.707s172.982 92.226 438.049-.004c101.218-35.218 208.451-48.944 314.181-24.364 73.381 17.059 141.142 50.094 213.293 71.037 179 51.959 384.443 62.422 555.047-20.318 309.694-150.197 485.467 0 485.467 0s309.694 208.168 672.399-15.81V-54.001h-2677.43l-1.006 218.708z"><animateTransform attributeName="transform" attributeType="XML" type="translate" dur="20" values="150,0;-150,0;150,0;" repeatCount="indefinite"/></path><g><linearGradient id="c" gradientUnits="userSpaceOnUse" x1="-427.022" y1="95.573" x2="2261.015" y2="95.573"><stop offset="0" stop-color="#00aeef"/><stop offset="1" stop-color="#2b3990"/></linearGradient><path opacity=".5" fill="url(#c)" d="M-427.022 147.749s173.602 92.226 439.609-.001c196.78-68.225 341.498-5.243 528.774 46.796 181.043 50.307 385.075 62.947 557.638-20.444 310.804-150.197 487.207 0 487.207 0s310.804 208.168 674.809-15.81V-70.96H-426.011l-1.011 218.709z"><animateTransform attributeName="transform" attributeType="XML" type="translate" dur="15" values="150,0;-150,0;150,0;" repeatCount="indefinite"/></path></g></svg>